<?xml version="1.0" standalone="no"?>
<!DOCTYPE svg PUBLIC "-//W3C//DTD SVG 20010904//EN"
 "http://www.w3.org/TR/2001/REC-SVG-20010904/DTD/svg10.dtd">
<svg version="1.0" xmlns="http://www.w3.org/2000/svg"
 width="64.000000pt" height="64.000000pt" viewBox="0 0 64.000000 64.000000"
 preserveAspectRatio="xMidYMid meet">

<g transform="translate(0.000000,64.000000) scale(0.100000,-0.100000)"
fill="#000000" stroke="none">
<path d="M225 633 c-47 -5 -102 -44 -111 -78 -4 -16 1 -36 15 -58 12 -19 21
-46 21 -61 0 -15 8 -36 18 -46 17 -19 18 -24 4 -80 -11 -45 -19 -60 -32 -60
-44 0 -56 -70 -25 -148 16 -39 16 -41 -5 -62 -11 -11 -18 -25 -15 -29 3 -5
104 -9 225 -9 213 0 220 1 220 20 0 11 -8 22 -19 25 -18 5 -18 6 0 54 11 27
19 66 19 87 0 31 5 41 25 52 14 8 23 20 21 27 -3 7 -1 15 4 18 18 11 11 86
-11 116 -29 41 -49 38 -49 -9 0 -37 -28 -103 -46 -109 -6 -2 -15 16 -21 39
-10 37 -9 46 8 69 10 15 19 39 19 54 0 15 9 38 20 52 11 14 20 33 20 42 0 25
-27 59 -60 76 -31 16 -175 27 -245 18z m-9 -35 c-7 -13 -16 -45 -19 -73 -3
-27 -11 -63 -18 -80 l-13 -30 -5 35 c-3 19 -14 47 -24 62 -23 33 -12 59 36 88
45 28 62 27 43 -2z m185 -5 c9 -16 19 -52 22 -81 4 -29 13 -67 21 -84 16 -30
14 -48 -5 -48 -5 0 -9 7 -9 16 0 8 -15 30 -32 47 -18 18 -40 45 -48 62 -20 39
-47 45 -56 12 -3 -14 -23 -41 -45 -60 -21 -20 -39 -45 -39 -56 0 -21 -14 -28
-24 -13 -2 4 4 32 14 62 11 30 19 70 20 88 0 18 8 44 18 57 15 21 25 24 82 25
61 0 67 -2 81 -27z m70 4 c42 -28 47 -57 19 -103 -12 -19 -20 -44 -17 -54 3
-11 3 -20 1 -20 -10 0 -24 44 -34 106 -6 37 -16 74 -22 81 -18 22 15 16 53
-10z m-137 -102 c3 -13 22 -36 41 -51 22 -17 35 -35 35 -50 0 -30 -32 -49 -60
-34 -21 11 -27 44 -10 55 22 13 10 35 -19 35 -35 0 -46 -13 -26 -30 36 -30 -3
-83 -45 -60 -30 16 -25 55 9 79 15 11 34 34 41 51 15 36 26 38 34 5z m231
-105 c3 -11 11 -20 16 -20 25 0 -7 -115 -36 -126 -7 -3 -23 0 -35 6 l-21 11
21 26 c22 29 44 98 35 113 -3 6 -2 10 4 10 5 0 13 -9 16 -20z m-227 -64 c5
-22 -18 -39 -34 -25 -17 14 -5 51 15 47 9 -2 17 -12 19 -22z m-128 5 c0 -5 25
-21 55 -35 53 -26 55 -26 92 -9 21 9 48 26 60 37 22 19 22 19 33 -8 17 -46 12
-150 -11 -211 -16 -44 -18 -59 -9 -70 11 -13 7 -15 -21 -15 l-34 0 3 94 c4 91
3 96 -22 121 -19 19 -32 24 -49 20 -42 -13 -49 -33 -45 -138 l3 -97 -34 0
c-29 0 -32 2 -21 15 10 12 8 24 -9 64 -29 68 -29 241 0 241 5 0 9 -4 9 -9z
m-50 -136 c0 -25 8 -67 18 -93 23 -60 12 -82 -39 -82 -30 1 -32 2 -14 12 11 6
22 12 23 14 2 1 -5 28 -17 59 -26 69 -27 111 -3 124 28 17 32 13 32 -34z m181
35 c17 -9 19 -22 19 -98 0 -48 -4 -93 -9 -100 -5 -8 -21 -12 -37 -10 l-29 3
-3 94 c-3 113 9 137 59 111z m174 -7 c20 -20 15 -68 -14 -134 l-20 -43 27 -12
27 -12 -35 -1 c-49 -1 -67 27 -44 71 9 17 19 58 21 90 6 62 12 68 38 41z"/>
<path d="M370 515 c-7 -9 -8 -15 0 -20 5 -3 10 -1 10 6 0 8 4 8 15 -1 12 -10
15 -10 15 3 0 21 -26 29 -40 12z"/>
<path d="M230 503 c0 -15 2 -16 10 -3 9 13 11 13 20 0 8 -13 10 -12 10 3 0 10
-8 17 -20 17 -12 0 -20 -7 -20 -17z"/>
</g>
</svg>
